<?xml version="1.0" encoding="UTF-8" standalone="no"?>
<!-- Created with Inkscape (http://www.inkscape.org/) -->

<svg
   version="1.1"
   id="svg2"
   xml:space="preserve"
   width="2666.6667"
   height="2666.6667"
   viewBox="0 0 2666.6667 2666.6667"
   sodipodi:docname="Image 1.ai"
   xmlns:inkscape="http://www.inkscape.org/namespaces/inkscape"
   xmlns:sodipodi="http://sodipodi.sourceforge.net/DTD/sodipodi-0.dtd"
   xmlns="http://www.w3.org/2000/svg"
   xmlns:svg="http://www.w3.org/2000/svg"><defs
     id="defs6"><clipPath
       clipPathUnits="userSpaceOnUse"
       id="clipPath16"><path
         d="M 0,2000 H 2000 V 0 H 0 Z"
         id="path14" /></clipPath><clipPath
       clipPathUnits="userSpaceOnUse"
       id="clipPath52"><path
         d="M 0,2000 H 2000 V 0 H 0 Z"
         id="path50" /></clipPath><clipPath
       clipPathUnits="userSpaceOnUse"
       id="clipPath68"><path
         d="M 0,2000 H 2000 V 0 H 0 Z"
         id="path66" /></clipPath><clipPath
       clipPathUnits="userSpaceOnUse"
       id="clipPath76"><path
         d="M 87,1913.5 H 1913 V 87.5 H 87 Z"
         id="path74" /></clipPath></defs><sodipodi:namedview
     id="namedview4"
     pagecolor="#ffffff"
     bordercolor="#666666"
     borderopacity="1.0"
     inkscape:pageshadow="2"
     inkscape:pageopacity="0.0"
     inkscape:pagecheckerboard="0" /><g
     id="g8"
     inkscape:groupmode="layer"
     inkscape:label="Image 1"
     transform="matrix(1.3333333,0,0,-1.3333333,0,2666.6667)"><g
       id="g10"><g
         id="g12"
         clip-path="url(#clipPath16)"><g
           id="g18"
           transform="translate(852,801)"><path
             d="m 0,0 c 0,0 17,61 30,119 0,0 -11.509,31.649 -31.709,38.594 -0.828,0.284 -1.507,0.893 -1.81,1.715 -2.224,6.029 -10.113,32.178 6.519,63.691 22.13,41.931 51,66 74,81 17.939,11.699 36.199,10.182 49.994,8.282 1.27,-0.175 2.556,0.058 3.695,0.647 5.596,2.895 24.42,11.2 46.311,5.071 25,-7 43,-22 51,-43 0,0 22,6 44,6 23.143,0 25.829,-6.509 25.991,-16.837 0.012,-0.751 0.12,-1.491 0.34,-2.21 C 299.447,258.315 303,245.802 303,234 c 0,-18 0,-68 -54,-91 0,0 -29,-18 -43,-137 0,0 -9,106 32,142 0,0 39,14 51,49 9.643,28.125 1,54 1,54 0,0 -4,-10 -14,-20 0,0 -0.632,-15.084 1,-19 5,-12 14,-21 14,-21 l -4,-6 c 0,0 -9,9 -14,19 0,0 -13.168,-32.292 -44,-40 -44,-11 -68,16 -68,16 0,0 17,-12 46,-11 28.001,0.966 63,18 60,62 0,0 -28,8 -29,36 0,0 -38,-2 -52,1 l 33,4 c 0,0 -1,5 -5,9 0,0 -8,1 -16,-4 0,0 1,9 12,10 0,0 -14.955,18.354 -37,21 -25,3 -35.019,-2.86 -43,-4 -7,-1 -16,4 -39,-3 C 71.938,295.199 48,270 28,240 8,210 5,200 3,186 1,172 5,169 13,163 c 8,-6 24,-25 31,-46 7,-21 14.172,-30.469 18,-32 5,-2 9,-1 16,11 7,12 13,25 8,45 -5,20 -31,55 -8,106 0,0 -7.678,-37.257 7,-75 14,-36 16,-48 10,-67 C 89.184,86.583 76,71 63,73 50,75 41,95 39,102 c 0,0 -6,-9 -8,-23 0,0 25,-12 59,-18 34,-6 71,-6 71,-6 0,0 0,8 4,12 4,4 6,2 11,-1 5,-3 18,-10 35,-8 17,2 19,3 25,7 6,4 9,3 11,1 2,-2 1,-9 0,-14 -1,-5 -2.924,-16.229 -1,-22 2,-6 -2,-8 -5,-11 -2.55,-2.549 -5.116,1.837 -8,4 -4,3 -20,8 -31,4 -8.406,-3.057 -17,-14 -27,-17 -10,-3 -10,11 -10,17 0,0 -51.691,-1.504 -87,5 C 40,39 19,47 19,47 19,47 15.602,26.67 11,19 5,9 0,0 0,0"
             style="fill:#719994;fill-opacity:1;fill-rule:nonzero;stroke:none"
             id="path20" /></g><g
           id="g22"
           transform="translate(1015,1076)"><path
             d="m 0,0 c 0,0 -11,0 -19,-5 -8,-5 -12,-14 -12,-14 0,0 -4.062,15.547 7,22 12,7 24,-3 24,-3"
             style="fill:#719994;fill-opacity:1;fill-rule:nonzero;stroke:none"
             id="path24" /></g><g
           id="g26"
           transform="translate(978.7245,1463.7642)"><path
             d="m 0,0 c 12.302,-42.396 -3.315,-84.19 -34.883,-93.35 -31.567,-9.16 -67.131,17.782 -79.433,60.178 -12.302,42.395 3.315,84.19 34.883,93.35 C -47.866,69.338 -12.302,42.396 0,0"
             style="fill:#4e5e5f;fill-opacity:1;fill-rule:nonzero;stroke:none"
             id="path28" /></g><g
           id="g30"
           transform="translate(884.9194,1318.9197)"><path
             d="m 0,0 c 10.983,-37.849 -2.96,-75.161 -31.142,-83.339 -28.182,-8.178 -59.931,15.875 -70.914,53.724 -10.983,37.849 2.959,75.162 31.141,83.339 C -42.733,61.902 -10.983,37.849 0,0"
             style="fill:#4e5e5f;fill-opacity:1;fill-rule:nonzero;stroke:none"
             id="path32" /></g><g
           id="g34"
           transform="translate(1007.4603,1464.1116)"><path
             d="m 0,0 c -12.302,-42.396 3.315,-84.19 34.883,-93.35 31.567,-9.16 67.131,17.782 79.433,60.178 12.302,42.395 -3.315,84.19 -34.883,93.35 C 47.866,69.338 12.302,42.396 0,0"
             style="fill:#4e5e5f;fill-opacity:1;fill-rule:nonzero;stroke:none"
             id="path36" /></g><g
           id="g38"
           transform="translate(1104.2655,1323.2672)"><path
             d="m 0,0 c -10.983,-37.849 2.96,-75.161 31.142,-83.339 28.182,-8.178 59.931,15.875 70.915,53.724 C 113.04,8.234 99.097,45.547 70.915,53.724 42.733,61.902 10.983,37.849 0,0"
             style="fill:#4e5e5f;fill-opacity:1;fill-rule:nonzero;stroke:none"
             id="path40" /></g><g
           id="g42"
           transform="translate(951,1336)"><path
             d="m 0,0 c -5.557,-7.709 -10.212,-18.771 -20,-39 -15,-31 -38,-57 -52,-81 -8.125,-13.928 -18.62,-36.705 1,-59 22,-25 54.093,-25.939 73,-22 24,5 28,19 46,20 20.991,1.166 31.076,-14.173 53,-16 24,-2 50.024,5.698 66,27 15,20 15,41 -11,72 -22.381,26.685 -44,49 -57,75 C 86,3 72,19 47,20 24.962,20.881 8.771,12.169 0,0"
             style="fill:#4e5e5f;fill-opacity:1;fill-rule:nonzero;stroke:none"
             id="path44" /></g></g></g><g
       id="g46"><g
         id="g48"
         clip-path="url(#clipPath52)"><g
           id="g54"
           transform="translate(747,472)"><path
             d="m 0,0 c -21.539,0 -39,17.461 -39,39 v 443 c 0,21.539 17.461,39 39,39 21.539,0 39,-143.92 39,-143.92 V 39 C 39,17.461 21.539,0 0,0"
             style="fill:#4e5e5f;fill-opacity:1;fill-rule:nonzero;stroke:none"
             id="path56" /></g><g
           id="g58"
           transform="translate(1000,661.625)"><path
             d="m 0,0 c -78.031,0 -151.391,30.394 -206.567,85.583 -55.173,55.187 -85.558,128.56 -85.558,206.604 0,99.783 50.123,191.659 134.079,245.77 L -130,556.375 c 0,0 -13.659,-11.067 -10,-44 2,-18 23.673,-33.189 23.673,-33.189 l -2.714,-1.749 C -182.336,436.643 -220.125,367.39 -220.125,292.187 -220.125,170.775 -121.377,72 0,72 c 121.377,0 220.125,98.775 220.125,220.187 0,77.188 -39.323,147.406 -105.189,187.833 l -5.324,3.268 c 0,0 16.388,12.087 23.388,27.087 9.836,21.077 0.481,42.741 0.481,42.741 l 19.118,-11.733 c 41.807,-25.66 76.775,-61.723 101.121,-104.29 25.125,-43.927 38.405,-94.035 38.405,-144.906 0,-78.044 -30.385,-151.417 -85.559,-206.604 C 151.392,30.394 78.031,0 0,0"
             style="fill:#4e5e5f;fill-opacity:1;fill-rule:nonzero;stroke:none"
             id="path60" /></g></g></g><g
       id="g62"><g
         id="g64"
         clip-path="url(#clipPath68)"><g
           id="g70"><g
             id="g72" /><g
             id="g88"><g
               clip-path="url(#clipPath76)"
               id="g86"><g
                 transform="translate(1912.98,1005.35)"
                 id="g80"><path
                   d="m 0,0 c 0.01,-1.78 0.02,-3.57 0.02,-5.35 0,-1.8 -0.01,-3.6 -0.02,-5.4 0,-0.48 -0.01,-0.96 -0.01,-1.44 -3.67,-401.35 -330.17,-725.58 -732.39,-725.58 -193.03,0 -368.62,74.68 -499.46,196.71 108.1,-77.6 240.65,-123.29 383.88,-123.29 363.96,0 659,295.04 659,659 0,363.96 -295.04,659 -659,659 -143.23,0 -275.78,-45.69 -383.88,-123.29 130.84,122.03 306.43,196.71 499.46,196.71 C -329.68,727.07 -2.87,402.04 0,0"
                   style="fill:#719994;fill-opacity:1;fill-rule:nonzero;stroke:none"
                   id="path78" /></g><g
                 transform="translate(1623.87,1667.1)"
                 id="g84"><path
                   d="m 0,0 c -134.47,96.4 -299.29,153.15 -477.37,153.15 -453.01,0 -820.25,-367.24 -820.25,-820.25 0,-453.01 367.24,-820.25 820.25,-820.25 176.05,0 339.15,55.46 472.77,149.88 -162.74,-150.31 -380.28,-242.13 -619.27,-242.13 -504.24,0 -913,408.76 -913,913 0,504.24 408.76,913 913,913 C -382.62,246.4 -163.23,152.83 0,0"
                   style="fill:#4e5e5f;fill-opacity:1;fill-rule:nonzero;stroke:none"
                   id="path82" /></g></g></g></g></g></g></g></svg>
